<svg xmlns="http://www.w3.org/2000/svg" width="1920.2" height="377.213" viewBox="0 0 1920.2 377.213">
  <g id="Grupo_11" data-name="Grupo 11" transform="translate(-0.1 -114.937)">
    <path id="Caminho_18" data-name="Caminho 18" d="M.11,381.1c1,0,2,.06,3,.06,8.25,0,8.37,0,9.91,8.3.42,2.25,1.51,2.63,3.37,2.62,8.67,0,17.34-.09,26,0,2.85,0,3.74-1,3.76-3.8,0-5.47-.37-11,.8-16.42.44-2.09,1.23-2.78,3.23-2.78q23,.06,46,0c3.76,0,3.35,3.05,3.93,5.27,1.69,6.44,2.39,6.71,8,3.13,5-3.21,6.59-8.16,6.92-13.65a107.409,107.409,0,0,0,0-11.49c-.17-4.47,1.17-6.69,6.29-6.42,8.14.43,16.32.07,24.49.17,3.83.05,6.9-1.06,8.61-4.69,1.39-2.95,4.07-3.26,6.73-3.26,26.83-.06,53.66,0,80.49-.09,3.23,0,4.3,1.22,4.48,4.39.67,11.62.81,11,12.13,11.79,10.52.72,18.82-1.07,25.13-10.64,4.61-7,11-12.82,16.68-19.15a9,9,0,0,0,2-6.48c-.08-9.16.07-18.33-.09-27.49-.06-3.16.77-4.52,4.18-4.39,5.82.24,11.66.16,17.49,0,2.75-.07,3.94,1.2,4.3,3.72,2.68,18.7,5.46,37.38,8,56.09.53,3.92,1.3,6.73,6.16,6.27,1.74-.17,3.56.68,5.37.85,5.11.49,9.39-.67,12.56-5.3,2.51-3.66,7-4.07,9.28-.71,5.93,8.77,14.64,7.8,22.94,6.53,5.65-.86,10.88.76,16.32.68,1.87,0,2.07,1.64,2.54,3.16,1.17,3.77,2.65,7.45,4.2,11.71,3.3-3.89,3.74-7.86,3.74-12V120.59c0-5.31,1-5.92,6.22-5.31,10.59,1.23,21.19.66,31.83.12,12.8-.65,25.66-.48,38.48-.3,21.5.31,42.68,2.82,63.22,9.69,4,1.34,5.35,3.23,5.34,7.48q-.21,88.23-.09,176.48c0,7.26,0,7.26,7,7.26,9.81,0,9.67,0,11.05-9.84,1.49-10.66,3.33-21.27,4.88-31.93.33-2.28,1.82-3.42,3.3-4.74,3.6-3.21,8.21-5.11,10.79-9.77.81-1.47,4.83-1.55,7.39-1.57,3.57,0,4.48-1.63,4.58-4.91.29-10.25.4-10.25,10.4-10.25,36.33,0,72.66.08,109-.1,4.36,0,5.66,1.06,5.62,5.54-.23,23.16,0,46.33-.18,69.49,0,3.84.89,5.44,5,5.13a138.878,138.878,0,0,1,14-.05c3,.08,4.15-1.19,4.21-4.15S762,313,762,310c0-3.24,1.08-4.57,4.41-5.27,8.75-1.87,8.71-2.09,8.71-11,0-7.16.09-14.33,0-21.49-.05-2.85.6-4.19,3.83-4.22,6.81-.07,13.6-.66,20.41-.88,2.29-.07,3.18-.69,4-3.13,1.71-4.92-.67-9.56.06-14.32,1.29-8.29,5.12-15.4,9.82-22.14,1-1.5,2.44-2.82,3.19-4.45,3.34-7.28,9.33-9.1,16.74-9,17,.17,34,0,51,0,5.66,0,10.29-.76,13.74-6.64s10.38-6.1,16.56-6.22a279.246,279.246,0,0,1,28.92.72c10.79.9,21.59-.8,32.4-.79,9.2,0,12.37,2.33,15.25,11.18,4.74,14.54,9.57,29.05,14.14,43.65,1,3.28,2.58,4.31,6,4.26,14.5-.21,29,0,43.49-.13,3,0,4.35.49,4.71,4a83.64,83.64,0,0,1,.71,11.92c-.12,3.38,1.22,5,4.57,5,4.32,0,9.81-1,12.44,1.88,2.84,3.06.75,8.59.94,13s.16,8.67,0,13c-.11,2.89.72,4.07,3.89,4.18,15.29.53,15.28.62,15.28-14.76v-95c0-5.37,1.52-7,7-7.27,3.66-.16,7.33,0,11,0,5.08,0,8.7-2.18,10.08-7.19.79-2.87,2.19-3.93,5.25-3.85,8.16.22,16.33.16,24.5,0,2.84,0,4.13.58,4.18,3.84.13,7.4,2.9,10.47,10.06,12,1.46.32,2.94.53,4.4.82,7.35,1.47,7.35,1.48,7.35,9.26q0,64.23.1,128.48c0,2.85-2,6.61,1.75,8.56,4.68,2.45,9.49,2.62,14.21-.29,5.39-3.34,8.27-9,12.7-13.28,3.11-3,5.73-6.46,8.61-9.68,1.19-1.33,2.83-1.54,4.53-1.75,6.93-.85,8.1-2.08,8.19-9.21.11-7.83.07-15.66-.07-23.49-.11-6.41,1.35-12.46,5.55-17.18,3.82-4.28,5.15-9.1,5.37-14.41.12-2.79,1-3.79,3.83-3.73,6.83.15,13.67.19,20.49,0,3.28-.1,4,1.4,3.84,4.21-.36,6.64,1.69,11.6,8.77,13.75,3.83,1.17,3.08,5.16,3.14,8.08.23,10,.09,20,.15,30,0,4.26.92,8.15,4.39,11.18,1.65,1.44,2.62,1.67,3.94-.17a12.631,12.631,0,0,0,2.72-7.78c-.15-12.67,0-25.33-.09-38a8,8,0,0,1,2.76-6.57c7.67-6.89,15.25-13.89,22.85-20.85.87-.79,1.72-1.67,3-1.68,10.71,0,21.49-2.21,32.06,1.58,6.15,2.21,10.3,6.4,12,12.4,1.06,3.78,2.63,4.83,6.39,5.13,8.94.72,8.92,1,8.92,10.21v44c0,8.12,2.34,10.65,10.27,10.5,3.76-.07,6.77,1.5,9.85,3.11,2.24,1.16,3.47,1.09,4.37-1.69,1.49-4.56,5.26-6.17,9.78-6.28,2.49-.06,5,0,7.49,0,7.28,0,7.28,0,7.29-7.09V239.59c0-4.67.09-9.34,0-14-.07-2.56.85-3.6,3.47-3.52,4.49.12,9,0,13.49,0,1.19-.59,2.54-.57,3.76-1.07a259.346,259.346,0,0,1,28.57-.13,19,19,0,0,1,3.8,1.19c1.84,0,3.67.05,5.5.13,9,.36,14.46,6.11,14.48,15.63.07,26.82.12,53.65-.07,80.48,0,4.67.38,7.8,6.16,7.13,1.75-.2,3.68.87,5.39.59,4-.67,5.56,2.09,8.21,4.15a26.81,26.81,0,0,0,16.63,5.93c9.83-.06,19.66.09,29.49-.07,2.85,0,4.09.76,4.63,3.69.82,4.49.41,9,.56,13.45.12,3.49,1.44,5.34,5.16,4.9a25,25,0,0,1,3,0c8.41,0,8.56,0,10.25-7.94.63-3,1.86-3.78,4.86-4.2,11.23-1.55,18.36-8.72,17.12-21.88-.19-2,.25-3.23,2.14-2.81,15.62,3.44,21.87-8.24,29.37-18,1.41-1.83,2.86-3.64,4.31-5.44.07-.09.29-.06.69-.14,1.5,2.44,2.86,5.1,4.64,7.44,6.53,8.64,15.79,9.75,25.59,8.67,2.31-.25,4.6-.58,6.92-.65,5.47-.16,10.67.77,15-5,3.48-4.61,10.1-4.19,15.88-4.08,10.32.21,10.32.09,11.09,10.36.73,9.69.73,9.69,10.54,9.69,7.84,0,15.67.1,23.5-.06,2.8-.05,4.08.94,5,3.61,3.53,10.39,7.88,13.34,18.74,13.54a99.94,99.94,0,0,1,12.44.56c3.48.49,3.89,2,3.85,4.88-.12,8-.15,16,0,24,0,2.41-1.54,6,2.12,6.85,4.14.92,8.7,3.24,12.66-.78.47-.47.92-1,1.35-1.47,1.46-1.68,1.52-4.43,4.36-5.11,4.41-1.05,8.91-.93,13.37-1.31,1.18-.1,1.54,1.15,1.79,2.09.49,1.76.91,3.54,1.22,5.33.66,3.81,2.78,5.41,6.66,4.92s5.48-2.21,5.35-6.24c-.24-8,.08-16-.14-24-.1-3.55.71-5,4.65-5,20.83.2,41.66.12,62.48.13q0,70.74.09,141.47c0,3.67-.72,4.64-4.55,4.63q-294.18-.17-588.37-.1-661.09,0-1322.19.12c-4.3,0-5.11-1-5.09-5.14C.2,451.75.11,416.43.11,381.1Z" fill="#172f43"/>
    <path id="Caminho_19" data-name="Caminho 19" d="M1483.15,222c-.63,1-1.31,1.14-2,.08-1.42-1.3-1.88-3.08-2.48-4.81a17.81,17.81,0,0,0-17.88-11.91c-2.54.14-3.62,1.45-4.82,3.52-2.48,4.27-4.23,8.91-6.8,13.12-.7,1.19-1.41.11-2.12,0-.62-3.63,0-7.42-3.16-10.57-1.87-1.88-.47-5.14-.87-7.75-.71-4.79-.35-10.3-8-10.74,5.63-3.42,10.24-7.24,16.67-6.93,8,.39,15.9-.65,23.82-1.53,3.47-.39,3.77-2.23,3.52-5.1-.85-9.75-1.8-19.5-2.15-29.27-.17-4.87,2-9,7.22-10.66.24.24.66.49.63.68-1.14,7.35-1.14,7.34,6.43,6.14,1.65-.26,3.4-.59,4.49,1.17,1.24,2,.28,3.74-1.31,4.76-5.62,3.64-4.76,8-2.18,13.1,2.26,4.43,3.94,9.15,6,13.69a5.15,5.15,0,0,1,.17,4.71c-2.5,5.43-4.55,11.08-7.26,16.4C1487.48,207.15,1484.13,214.14,1483.15,222Z" fill="#172f43"/>
  </g>
</svg>
