<svg xmlns="http://www.w3.org/2000/svg" width="151.57" height="28.075" viewBox="0 0 151.57 28.075">
  <g id="Camada_2" data-name="Camada 2" transform="translate(0 0.005)">
    <g id="Camada_1" data-name="Camada 1">
      <path id="Caminho_1" data-name="Caminho 1" d="M52.82.32V18.7c0,5.93-4.56,9.37-10.52,9.37-5.79,0-10.53-3.58-10.53-9.37V5.09h5.3V18.67c.31,2.77,2.63,4.24,5.23,4.24s5.22-1.37,5.22-4.21V.32A.36.36,0,0,1,47.91,0h4.56a.37.37,0,0,1,.35.32" fill="#fff"/>
      <path id="Caminho_2" data-name="Caminho 2" d="M81.51,19.89c0,5.27-4.21,8.18-8.7,8.18h0V23h0a3.3,3.3,0,0,0,3.51-3.13,3.61,3.61,0,0,0-3.51-3.4,10.3,10.3,0,0,1-4.17-.95,7.41,7.41,0,0,1-4.56-7.08C64.08,3.19,68.32,0,72.81,0c4.81,0,8.53,3.23,8.6,8a.359.359,0,0,1-.39.28H76.64c-.21,0-.39-.17-.39-.28-.07-2-1.61-2.95-3.44-2.95A3.25,3.25,0,0,0,69.3,8.46c0,2,1.72,3.08,3.51,3.08a10.29,10.29,0,0,1,4.14,1,7.82,7.82,0,0,1,4.56,7.4" fill="#fff"/>
      <path id="Caminho_3" data-name="Caminho 3" d="M115.65,28.07h-6l-.32-.1-8.17-10.11c-.71.74-7.55,8.49-7.55,8.49V.32A.38.38,0,0,1,94,0h4.6a.34.34,0,0,1,.4.32V13.09L109.51.1l.32-.1h5.72c.38,0,.56.28.31.53L104.7,14.28,116,27.54c.21.28,0,.53-.32.53" fill="#fff"/>
      <path id="Caminho_4" data-name="Caminho 4" d="M138.1,28.07c-9.09,0-13.55-7-13.55-14.07S129,0,138.1,0c8.94,0,13.47,7,13.47,14S147,28.07,138.1,28.07M138.1,5c-5.51,0-8.25,4.56-8.25,9.16s2.74,9.05,8.25,9.05,8.21-4.53,8.21-9S143.54,5,138.1,5m0,11.79a2.65,2.65,0,1,1,2.63-2.63,2.65,2.65,0,0,1-2.63,2.63" fill="#fff"/>
      <path id="Caminho_5" data-name="Caminho 5" d="M22.07,28.07H16l-.31-.1L7.54,17.86C6.84,18.6,0,26.35,0,26.35V.32A.38.38,0,0,1,.39,0H5a.34.34,0,0,1,.35.32V13.09L15.93.1l.32-.1H22c.39,0,.57.28.32.53L11.12,14.28,22.39,27.54c.21.28,0,.53-.32.53" fill="#fff"/>
    </g>
  </g>
</svg>
